<svg width="556" height="354" fill="none" xmlns="http://www.w3.org/2000/svg"><g opacity=".03" clip-path="url(#clip0)" fill-rule="evenodd" clip-rule="evenodd" fill="#FEFEFE"><path d="M426.212 183.289c2.162-1.445 9.334-10.135 11.89-12.658 4.33-4.269 10.194-11.487 13.857-15.09l3.943-4.235c.867-.892 1.114-1.451 2.035-2.37l7.879-8.484c2.696-2.663 6.452-7.578 8.894-9.675l4.977-5.407c3.169-3.902 13.744-15.256 17.954-19.498 3.57-3.602 8.293-9.522 11.803-13.058l27.781-30.118c2.316-2.99 14.645-15.502 15.933-17.427-3.55 0-11.402-2.63-15.365-3.529l-9.334-2.004c-2.102-.526-4.03-.892-6.065-1.492-2.022-.6-4.157-.739-6.285-1.272l-18.681-4.301c-4.284-.88-7.933-2.238-12.263-2.85-3.997-.566-8.26-1.925-12.21-2.91-2.155-.54-4.023-.813-6.244-1.312-4.377-.979-8.187-2.144-12.437-2.997-6.378-1.278-12.103-3.09-18.434-4.242l-18.588-4.088c-2.048-.42-4.043-.939-6.111-1.452-2.009-.5-4.13-1.025-6.299-1.578L392.493 8.48c-1.922-.48-4.244-1.159-6.072-1.492-2.455-.446-4.343-.792-6.532-1.338-4.156-1.046-8.092-2.198-12.242-2.877-2.135-.346-3.997-.866-6.152-1.405-2.248-.566-4.243-1.332-6.492-1.378l16.587 42.863c1.721 3.776 2.902 7.465 4.43 11.3.44 1.112.714 1.785 1.167 2.924.387.959.801 1.89 1.081 2.69.22.633.214.799.427 1.458l11.776 30.372c.414 1.185.674 1.564 1.114 2.656.367.92.801 1.958 1.208 2.884l11.028 28.607c.374.932.654 1.651 1.081 2.697.474 1.158.607 1.917 1.034 3.049l5.618 14.197c.494 1.232.774 1.638 1.208 2.884l6.625 17.279c.494 1.166.761 1.672 1.168 2.917l5.624 14.503.033.02zm-3.776 57.846c-4.157 0-7.479.507-11.562 1.033l-11.776 1.138c-2.722.26-5.371.633-7.9.919-5.164.573-10.268 1.299-15.365 1.638-9.007.606-22.097 2.025-31.064 3.27-5.298.732-10.455.952-15.859 1.465-4.971.466-10.555 1.252-15.519 1.804-4.704.52-11.115 1.605-15.686 1.639-5.27.033-10.168 1.098-15.452 1.558-2.568.219-5.237.639-7.606.899l-15.712 1.611c-1.548.12-2.582.12-3.823.273-1.608.207-2.335.267-4.01.4l-23.198 2.623c-2.642.373-5.244.247-7.879.626-10.322 1.479-20.916 2.085-31.225 3.416l-15.839 1.485c.941 1.405 1.742 1.612 2.923 2.744l22.044 20.443c.7.646.927.646 1.581 1.252l4.643 4.481c.04.047.101.127.141.173l.146.167 2.329 2.077c1.007.859.587.433 1.428 1.405.687.793.754.66 1.527 1.305.554.46.915.839 1.475 1.359l2.956 2.71c1.04.959 1.774 1.931 2.862 2.803 1.261.999 1.828 1.565 2.962 2.704l5.951 5.374c2.596 2.064 4.704 4.714 7.293 6.872 5.631 4.694 10.808 9.968 16.219 14.936l.821.752c.046.047.106.113.153.16l16.733 15.369c3.256-2.178 6.432-4.841 9.748-6.932l41.139-29.992c.96-.732 1.501-.965 2.441-1.651l55.744-40.567c.947-.705 1.781-1.065 2.655-1.751l4.864-3.636c.821-.606 1.581-1.065 2.375-1.718l19.355-14.01c.774-.566 1.428-1.172 2.295-1.798l12.21-8.876c1.214-.78 1.655-.746 2.462-1.945v-.007zM0 196.181l51.66 31.124c3.757 1.918 10.021 6.253 14.178 8.484l9.447 5.66-7.873-46.846c-.513-3.116-1.14-6.113-1.667-9.336l-3.136-18.878c-1.148-5.853-1.775-11.979-3.096-18.605-.607-3.043-1.107-6.14-1.641-9.369l-6.292-37.73c-.413-2.384-1.488-7.325-1.488-9.515l-3.149 6.292c-1.054 2.164-2.081 4.455-3.155 6.599-1.081 2.158-2.069 4.448-3.15 6.599a158.642 158.642 0 00-3.135 6.613l-3.13 6.312c-.52 1.232-.787 2.105-1.394 3.323-.62 1.232-1.06 2.118-1.681 3.35l-6.192 13.317c-.58 1.259-1.107 1.772-1.688 3.03-.54 1.166-.934 2.164-1.4 3.316-.922 2.244-2.196 4.209-3.197 6.553L.787 194.436c-.433.853-.527.68-.78 1.738l-.007.007zm504.02 66.962c5.217 0 10.634.673 15.752.946 3.309.173 13.417.386 16.199.806 1.761.266 4.871.299 6.498.433 1.108.093 2.336-.047 3.45.013 1.401.073 1.508.306 3.136.326 2.301.027 4.637-.013 6.945-.013-.44-.833-.607-1.472-1.047-2.411L534.67 217.15c-1.748-4.075-3.93-8.537-5.271-12.346-.313-.899-.74-1.611-1.114-2.344-1.601-3.149-2.789-6.718-4.297-9.855-.44-.905-.747-1.385-1.147-2.317-.214-.5-.354-.939-.534-1.359l-.634-1.251-2.201 9.435c-.367 1.525-.728 2.89-1.141 4.522-.434 1.691-.641 3.469-1.001 4.974l-4.477 18.798c-.767 3.07-1.648 6.113-2.335 9.303l-6.485 28.42-.013.013zM276.896 156.567c-3.189 0-25 3.456-28.669 4.088-3.129.54-6.559.773-9.721 1.306a877.561 877.561 0 01-18.808 2.923c-3.483.506-6.385.786-9.728 1.298l-9.634 1.392c.367.766.641 2.058 1.034 3.05l6.299 18.239c.427 1.205.52 2.204.987 3.416a221.209 221.209 0 012.195 5.98l6.178 18.671 42.113-42.224c.087-.093.434-.493.447-.5l4.15-4.341c3.349-3.017 1.895-1.925 3.763-3.789.774-.773 1.254-.846 2.068-1.711.741-.793.894-1.252 1.708-2.065.814-.812 1.328-.972 2.068-1.711l3.536-4.015.014-.007zM171.053 87.088c1.628-2.424 6.906-8.024 9.214-10.615.781-.879 1.268-1.791 2.048-2.67.861-.966 1.642-1.505 2.469-2.564.894-1.145 1.221-1.771 2.255-2.783a16.673 16.673 0 002.288-2.75l-11.088-2.764c-1.875-.473-3.523-.965-5.418-1.505-1.935-.552-3.696-.759-5.671-1.258-3.756-.953-7.219-2.091-10.888-2.97l-11.349-2.824 26.147 32.696-.007.007zM5.671 348.025c12.977 0 25.26-.313 38.43-.313.214-.919.667-1.791 1.04-2.737l7.78-20.842c-1.808.959-3.923 2.104-5.851 2.963l-8.854 4.368a66.941 66.941 0 00-2.942 1.465c-1.014.526-1.748 1.059-2.822 1.585l-11.976 5.973c-.98.506-1.868.919-2.942 1.465l-10.382 5.041c-.694.333-1.007.626-1.48 1.039v-.007zm271.225-191.458h.313l-.26-.366-.053.366zm145.54 84.569l.674-.174-.674.174z"/></g><defs><clipPath id="clip0"><path fill="#fff" d="M0 0h556v354H0z"/></clipPath></defs></svg>