<svg width="556" height="354" viewBox="0 0 556 354" fill="none" xmlns="http://www.w3.org/2000/svg">
<g opacity="0.03" clip-path="url(#clip0)">
<path fill-rule="evenodd" clip-rule="evenodd" d="M426.212 183.289C428.374 181.844 435.546 173.154 438.102 170.631C442.432 166.362 448.296 159.144 451.959 155.541L455.902 151.306C456.769 150.414 457.016 149.855 457.937 148.936L465.816 140.452C468.512 137.789 472.268 132.874 474.71 130.777L479.687 125.37C482.856 121.468 493.431 110.114 497.641 105.872C501.211 102.27 505.934 96.3501 509.444 92.8142L537.225 62.6958C539.541 59.7059 551.87 47.1938 553.158 45.2693C549.608 45.2693 541.756 42.6391 537.793 41.7401L528.459 39.7358C526.357 39.2097 524.429 38.8435 522.394 38.2442C520.372 37.6449 518.237 37.505 516.109 36.9723L497.428 32.6706C493.144 31.7916 489.495 30.4332 485.165 29.8206C481.168 29.2546 476.905 27.8962 472.955 26.9106C470.8 26.3713 468.932 26.0982 466.711 25.5988C462.334 24.62 458.524 23.4546 454.274 22.6023C447.896 21.3238 442.171 19.5125 435.84 18.3605L417.252 14.272C415.204 13.8524 413.209 13.333 411.141 12.8203C409.132 12.3209 407.011 11.7948 404.842 11.2421L392.493 8.47868C390.571 7.99923 388.249 7.32002 386.421 6.98707C383.966 6.54093 382.078 6.19466 379.889 5.64863C375.733 4.60317 371.797 3.45118 367.647 2.77196C365.512 2.4257 363.65 1.9063 361.495 1.36693C359.247 0.800916 357.252 0.035138 355.003 -0.0114746L371.59 42.8521C373.311 46.6278 374.492 50.3168 376.02 54.1524C376.46 55.2644 376.734 55.937 377.187 57.0756C377.574 58.0345 377.988 58.9668 378.268 59.7659C378.488 60.3985 378.482 60.5649 378.695 61.2242L390.471 91.5956C390.885 92.7809 391.145 93.1605 391.585 94.2525C391.952 95.1715 392.386 96.2103 392.793 97.1358L403.821 125.743C404.195 126.675 404.475 127.394 404.902 128.44C405.376 129.598 405.509 130.357 405.936 131.489L411.554 145.686C412.048 146.918 412.328 147.324 412.762 148.57L419.387 165.849C419.881 167.015 420.148 167.521 420.555 168.766L426.179 183.269L426.212 183.289Z" fill="#FEFEFE"/>
<path fill-rule="evenodd" clip-rule="evenodd" d="M422.436 241.135C418.279 241.135 414.957 241.642 410.874 242.168L399.098 243.306C396.376 243.566 393.727 243.939 391.198 244.225C386.034 244.798 380.93 245.524 375.833 245.863C366.826 246.469 353.736 247.888 344.769 249.133C339.471 249.865 334.314 250.085 328.91 250.598C323.939 251.064 318.355 251.85 313.391 252.402C308.687 252.922 302.276 254.007 297.705 254.041C292.435 254.074 287.537 255.139 282.253 255.599C279.685 255.818 277.016 256.238 274.647 256.498L258.935 258.109C257.387 258.229 256.353 258.229 255.112 258.382C253.504 258.589 252.777 258.649 251.102 258.782L227.904 261.405C225.262 261.778 222.66 261.652 220.025 262.031C209.703 263.51 199.109 264.116 188.8 265.447L172.961 266.932C173.902 268.337 174.703 268.544 175.884 269.676L197.928 290.119C198.628 290.765 198.855 290.765 199.509 291.371L204.152 295.852C204.192 295.899 204.253 295.979 204.293 296.025C204.333 296.072 204.399 296.145 204.439 296.192L206.768 298.269C207.775 299.128 207.355 298.702 208.196 299.674C208.883 300.467 208.95 300.334 209.723 300.979C210.277 301.439 210.638 301.818 211.198 302.338L214.154 305.048C215.194 306.007 215.928 306.979 217.016 307.851C218.277 308.85 218.844 309.416 219.978 310.555L225.929 315.929C228.525 317.993 230.633 320.643 233.222 322.801C238.853 327.495 244.03 332.769 249.441 337.737L250.262 338.489C250.308 338.536 250.368 338.602 250.415 338.649L267.148 354.018C270.404 351.84 273.58 349.177 276.896 347.086L318.035 317.094C318.995 316.362 319.536 316.129 320.476 315.443L376.22 274.876C377.167 274.171 378.001 273.811 378.875 273.125L383.739 269.489C384.56 268.883 385.32 268.424 386.114 267.771L405.469 253.761C406.243 253.195 406.897 252.589 407.764 251.963L419.974 243.087C421.188 242.307 421.629 242.341 422.436 241.142V241.135Z" fill="#FEFEFE"/>
<path fill-rule="evenodd" clip-rule="evenodd" d="M0 196.181L51.6603 227.305C55.4165 229.223 61.6814 233.558 65.838 235.789L75.2853 241.449L67.4125 194.603C66.8988 191.487 66.2717 188.49 65.7446 185.267L62.6088 166.389C61.4612 160.536 60.8341 154.41 59.5131 147.784C58.9059 144.741 58.4055 141.644 57.8718 138.415L51.5802 100.685C51.1665 98.3013 50.0924 93.3603 50.0924 91.1696L46.9433 97.4623C45.8891 99.6264 44.8616 101.917 43.7875 104.061C42.7066 106.219 41.7192 108.509 40.6383 110.66C39.5175 112.884 38.5434 114.955 37.5026 117.273L34.3735 123.585C33.8531 124.817 33.5862 125.69 32.979 126.908C32.3586 128.14 31.9182 129.026 31.2977 130.258L25.1062 143.575C24.5258 144.834 23.9987 145.347 23.4183 146.605C22.8778 147.771 22.4842 148.769 22.0172 149.921C21.0964 152.165 19.8221 154.13 18.8213 156.474L0.78728 194.436C0.353609 195.289 0.260203 195.116 0.00667187 196.174L0 196.181Z" fill="#FEFEFE"/>
<path fill-rule="evenodd" clip-rule="evenodd" d="M504.02 263.143C509.237 263.143 514.654 263.816 519.772 264.089C523.081 264.262 533.189 264.475 535.971 264.895C537.732 265.161 540.842 265.194 542.469 265.328C543.577 265.421 544.805 265.281 545.919 265.341C547.32 265.414 547.427 265.647 549.055 265.667C551.356 265.694 553.692 265.654 556 265.654C555.56 264.821 555.393 264.182 554.953 263.243L534.67 217.15C532.922 213.075 530.74 208.613 529.399 204.804C529.086 203.905 528.659 203.193 528.285 202.46C526.684 199.311 525.496 195.742 523.988 192.605C523.548 191.7 523.241 191.22 522.841 190.288C522.627 189.788 522.487 189.349 522.307 188.929L521.673 187.678L519.472 197.113C519.105 198.638 518.744 200.003 518.331 201.635C517.897 203.326 517.69 205.104 517.33 206.609L512.853 225.407C512.086 228.477 511.205 231.52 510.518 234.71L504.033 263.13L504.02 263.143Z" fill="#FEFEFE"/>
<path fill-rule="evenodd" clip-rule="evenodd" d="M276.896 156.567C273.707 156.567 251.896 160.023 248.227 160.655C245.098 161.195 241.668 161.428 238.506 161.961C232.328 162.993 226.09 163.958 219.698 164.884C216.215 165.39 213.313 165.67 209.97 166.182L200.336 167.574C200.703 168.34 200.977 169.632 201.37 170.624L207.669 188.863C208.096 190.068 208.189 191.067 208.656 192.279C209.437 194.33 210.13 196.194 210.851 198.259L217.029 216.93L259.142 174.706C259.229 174.613 259.576 174.213 259.589 174.206L263.739 169.865C267.088 166.848 265.634 167.94 267.502 166.076C268.276 165.303 268.756 165.23 269.57 164.365C270.311 163.572 270.464 163.113 271.278 162.3C272.092 161.488 272.606 161.328 273.346 160.589L276.882 156.574L276.896 156.567Z" fill="#FEFEFE"/>
<path fill-rule="evenodd" clip-rule="evenodd" d="M171.053 87.0876C172.681 84.6637 177.959 79.0635 180.267 76.4732C181.048 75.5942 181.535 74.6819 182.315 73.803C183.176 72.8374 183.957 72.298 184.784 71.2393C185.678 70.0939 186.005 69.468 187.039 68.4558C187.953 67.5635 188.647 66.7179 189.327 65.7057L178.239 62.9422C176.364 62.4695 174.716 61.9767 172.821 61.4373C170.886 60.8846 169.125 60.6782 167.15 60.1788C163.394 59.2265 159.931 58.0879 156.262 57.2089L144.913 54.3855L171.06 87.0809L171.053 87.0876Z" fill="#FEFEFE"/>
<path fill-rule="evenodd" clip-rule="evenodd" d="M5.67108 348.025C18.6479 348.025 30.9308 347.712 44.101 347.712C44.3145 346.793 44.7682 345.921 45.1418 344.975L52.9212 324.133C51.1132 325.092 48.9982 326.237 47.07 327.096L38.2164 331.464C37.1623 331.95 36.2216 332.436 35.2741 332.929C34.26 333.455 33.5261 333.988 32.452 334.514L20.476 340.487C19.4952 340.993 18.6078 341.406 17.5337 341.952L7.15224 346.993C6.45836 347.326 6.14478 347.619 5.67108 348.032V348.025Z" fill="#FEFEFE"/>
<path fill-rule="evenodd" clip-rule="evenodd" d="M276.896 156.567H277.209L276.949 156.201L276.896 156.567Z" fill="#FEFEFE"/>
<path fill-rule="evenodd" clip-rule="evenodd" d="M422.436 241.136L423.11 240.962L422.436 241.136Z" fill="#FEFEFE"/>
</g>
<defs>
<clipPath id="clip0">
<rect width="556" height="354" fill="white"/>
</clipPath>
</defs>
</svg>
