<?xml version="1.0" encoding="utf-8"?><svg viewBox="0 0 75 75" xmlns="http://www.w3.org/2000/svg" xmlns:xlink="http://www.w3.org/1999/xlink"><style>:root>svg{display:none}:root>svg:target{display:block}</style><svg fill="none" viewBox="0 0 68 75" id="icon-contract" xmlns="http://www.w3.org/2000/svg"><g clip-path="url(#aclip0)"><path fill-rule="evenodd" clip-rule="evenodd" d="M43.745 68.5c-.664-2.517-.483-5.876-.483-8.814 7.904 2.938 6.999 2.879 14.963.06 0 3.598.966 11.333-4.344 9.055-2.413-1.08-2.232-2.339-5.008-.78-2.655 1.5-2.413 1.68-5.189.48h.06zm5.43-26.922c9.774-2.339 12.67 12.412 3.318 14.45-9.714 2.1-13.214-12.112-3.318-14.45zm-25.583-2.1c-6.034 0-6.275-5.576-.543-5.576l10.438-.12 3.379.54c1.388 3.058.784 5.157-3.258 5.157H23.532h.06zM19.79 27.787c-3.138-6.956 6.516-5.097 17.86-5.097 11.524 0 20.936-1.859 17.86 5.097-3.5.96-32.281.96-35.78 0h.06zM5.853 13.336C5.913 8.237 7.42 5.96 12.61 5.96h31.857l2.052.06c-1.026 3.298-1.327 3.418-1.327 7.375l-39.34-.06zm1.81 5.755c.543 11.453.06 24.046.06 35.618 0 17.57-1.146 20.088 15.326 20.088 11.645 0 23.954.36 35.538 0 12.249-.42 9.051-15.23 9.051-26.324 0-11.872.181-23.985 0-35.857C67.397-.996 56.536.323 44.468.323c-7.964 0-28.72-1.02-35.116.24C-.965 2.542-.483 15.014.603 17.353c1.086 2.338 4.103 1.379 7.06 1.738z" fill="#fff"/></g><defs><clipPath id="aclip0"><path fill="#fff" d="M0 0h68v75H0z"/></clipPath></defs></svg><svg fill="none" viewBox="0 0 74 75" id="icon-cup" xmlns="http://www.w3.org/2000/svg"><g clip-path="url(#bclip0)"><path fill-rule="evenodd" clip-rule="evenodd" d="M30.862 22.432c1.403-1.063 3.157-.354 4.56-2.481 2.104-2.482 0-2.128 4.559-2.128v19.5h-4.91V24.913h-4.56v-2.836l.351.354zM20.692 39.45h-.702c-3.857-4.255-7.365-7.445-11.573-12.054-12.626-14.536 0-20.563 5.26-15.954 2.105 1.773 2.456 5.318 2.806 8.509.702 7.09 2.104 12.763 3.858 19.144l.35.355zm32.967 0h-.702c1.754-6.736 3.157-12.054 4.209-19.5.35-3.9.701-6.735 3.156-8.508 2.806-2.127 6.313-1.418 8.417.71 7.014 7.444-9.82 21.98-15.08 27.652v-.354zM21.744 45.83s.701-.709 1.052-.709c.701 3.9 3.156 7.09 5.26 9.927 1.404 2.127 4.56 5.672 9.12 5.318 7.715-.355 11.573-11.7 14.028-15.6 1.052 2.837 2.455 4.964 6.312 3.9.702-3.545-1.052-1.772-2.805-3.9.35-6.735 20.692-16.308 18.938-29.78-.701-6.381-8.768-10.99-14.73-6.736-2.104 1.418-.701 1.773-4.208 1.773H24.9c-8.418 0-6.314.709-10.171-1.773C8.066 3.997.7 9.315 0 15.341c-1.052 13.118 18.938 22.69 18.938 29.427-1.753 2.127-3.507.354-2.805 3.9 2.805 1.063 4.91-.355 5.61-2.837zm4.56 22.69c-4.21 0-7.015 2.127-7.015 6.381H54.36c-.701-7.09-6.663-6.381-11.223-6.381v-6.736c-9.118 2.836-4.91 2.482-12.976 0v6.736h-3.858zM16.132.45c-3.508 1.773-2.455 6.028 2.805 6.028 5.612 0 37.176.354 38.228-.355C59.97 5.061 60.322.097 54.36.097S17.535-.257 16.133.452z" fill="#fff"/></g><defs><clipPath id="bclip0"><path fill="#fff" d="M0 0h74v75H0z"/></clipPath></defs></svg><svg fill="none" viewBox="0 0 51 75" id="icon-hand" xmlns="http://www.w3.org/2000/svg"><g clip-path="url(#cclip0)"><path fill-rule="evenodd" clip-rule="evenodd" d="M28.134 61.806c-2.102.09-4.956.056-7.527-.452a18.942 18.942 0 01-6.939-2.878c-2.074-1.388-3.92-3.171-5.563-5.316-1.643-2.144-3.075-4.65-4.305-7.404A60.853 60.853 0 01.91 37.822c-.606-2.19-.79-3.567-.808-5.046-.018-1.478.11-3.058.459-4.537.349-1.478.918-2.855 1.616-3.928a8.478 8.478 0 012.267-2.325 6.928 6.928 0 011.643-.823c.33-.113.385-.125.404-.113.018.022.009.079.073.801.064.722.193 2.11.606 4.424a124.629 124.629 0 001.808 8.319c.707 2.754 1.441 5.01 1.992 6.32.551 1.31.918 1.66 1.212 1.829.294.169.514.158.771.01.257-.146.541-.44.743-.767.202-.327.313-.7 0-1.85-.312-1.152-1.046-3.093-1.643-4.922-.605-1.828-1.083-3.566-1.588-6.331-.504-2.766-1.037-6.57-1.294-8.827-.257-2.257-.248-2.968-.174-4.13.073-1.163.202-2.788.55-4.3a13.679 13.679 0 011.809-4.324c.89-1.4 2.111-2.81 3.8-3.95 1.689-1.14 3.837-2.009 6.26-2.54 2.424-.53 5.113-.722 8.06-.7 2.946.023 6.131.272 8.646.734 2.515.463 4.342 1.14 5.93 2.156a12.808 12.808 0 013.984 3.984c1.046 1.648 1.772 3.59 2.23 5.396.46 1.805.634 3.465.652 6.975a180.44 180.44 0 01-.505 13.69c-.376 4.842-.982 9.199-1.744 12.833-.752 3.635-1.652 6.57-2.359 8.398-.706 1.828-1.23 2.573-2.175 3.352-.946.779-2.304 1.614-4.232 2.223-1.928.61-4.424.993-6.352 1.298-1.927.305-3.295.542-5.397.632l-.019.023zm-12.75 2.607c.322 11.501 8.005 10.497 17.01 10.418 9.748-.08 14.136-.88 13.603-14.267-2.194.903-3.497 2.066-6.581 2.867-7.399 1.919-16.192 2.054-23.233.057l-1.202-.553c.082 1.534-.12.654.413 1.478h-.01z" fill="#fff" stroke="#fff" stroke-width=".2"/></g><defs><clipPath id="cclip0"><path fill="#fff" d="M0 0h51v75H0z"/></clipPath></defs></svg><svg fill="none" viewBox="0 0 70 75" id="icon-man" xmlns="http://www.w3.org/2000/svg"><path fill-rule="evenodd" clip-rule="evenodd" d="M24.495 51.308c11.867 3.892 6.085 6.517 21.282.154-4.238-8.062-.847-7.228 1.453-13.715 2.453-6.888 1.877-2.193 3.452-5.838 1.846-4.263-.455-5.622-.424-7.383 0-.03 4.783-16.526-6.085-20.201-5.873-2.008-2.12.803-5.45-4.232C27.038-.865 16.2 8.463 19.077 21.159c.333 1.421 1.06 2.75.908 3.584-.242 1.359-1.12 1.08-1.09 3.8.091 4.725 2.362 4.077 3.36 7.011.546 1.606.576 2.255 1.302 3.8l1.968 3.212c.666 1.143.939 1.822.606 4.664-.303 2.41-.757 2.348-1.635 4.078zM40.298 74.722c4.48.309 26.55.525 29.517-.309C71.57 62.335 60.43 58.382 51.59 54.737c-3.058-1.267-3.905-.186-6.993 1.08-2.12.896-5.328 1.607-6.418 3.275-2.574 3.954 1.15 11.12 2.119 15.63zM3.697 74.815l26.338-.062c.969-4.54 5.086-12.665 1.665-16.217-1.09-1.112-5.086-2.44-6.933-3.305-3.935-1.792-3.057-1.884-6.872-.247-2.3.957-4.843 2.008-7.084 3.12-2.664 1.328-4.177 2.255-6.054 4.17-3.754 3.83-7.902 12.54-1.06 12.54z" fill="#fff"/></svg><svg fill="none" viewBox="0 0 72 75" id="icon-trainer" xmlns="http://www.w3.org/2000/svg"><g clip-path="url(#eclip0)"><path fill-rule="evenodd" clip-rule="evenodd" d="M13.469 55.336c1.969-1.354 4.74-3.655 6.943-4.67.6 4.467 1.235 9.036 1.869 13.537.968 7.006.267 10.56 4.907 10.593 6.242 0 14.954.644 20.863-.44 1.468-3.418 3.104-18.513 3.638-23.522 1.336.474 5.942 3.859 7.11 4.84-3.07 6.092-13.051 14.79-6.075 18.48 4.44 2.335 7.444-2.776 8.946-4.671 1.235-1.557 2.37-2.335 3.605-3.825 4.006-4.806 8.98-8.36 5.608-14.688L60.001 40.072c-5.174-4.502-7.577-8.428-12.35-9.24L37.401 51.274c1.936 1.32 3.439-.236 3.439 3.216 0 2.944.233 4.129-.368 6.6-4.406.507-4.473.609-8.845.1-.768-8.257-1.069-9.171 3.204-9.408L24.684 30.866c-2.436.406-3.905 1.218-5.174 2.505L4.09 47.755c-9.314 7.716-.2 14.35 3.104 18.445 1.235 1.557 2.37 2.335 3.605 3.824 1.536 1.828 4.273 6.939 8.846 4.163 4.24-2.572 1.202-6.87-.634-9.747-1.636-2.572-4.373-6.261-5.542-9.003v-.101zm22.498-9.95l7.377-14.554-14.454-.034 7.044 14.587h.033zM32.462.71c-15.555 5.043-8.045 28.531 7.277 23.624C54.627 19.562 48.385-4.468 32.462.71z" fill="#fff"/></g><defs><clipPath id="eclip0"><path fill="#fff" d="M0 0h72v75H0z"/></clipPath></defs></svg><svg fill="none" viewBox="0 0 75 75" id="icon-tv" xmlns="http://www.w3.org/2000/svg"><g clip-path="url(#fclip0)"><path fill-rule="evenodd" clip-rule="evenodd" d="M21.727 28.879c6.565-.213 15.373-.427 21.778.267 7.58.854 10.088 3.683 10.836 11.317.533 5.391.694 15.854-.748 20.925-1.921 6.673-7.046 7.313-14.412 7.527-6.778.213-15.426.427-22.044-.32-7.527-.801-10.089-3.737-10.89-11.264-.587-5.445-.693-16.014.694-20.979 1.922-6.726 7.26-7.26 14.786-7.526v.053zM63.308 49.11c5.818-2.295 7.686 6.513 3.15 8.22-2.456.908-5.072-.32-5.819-2.294-.534-1.388-.48-2.563.107-3.844.694-1.441 1.334-1.548 2.562-2.028v-.054zm-.374-11.477c5.872-2.402 8.327 6.032 3.684 8.114-5.819 2.616-8.861-6.032-3.684-8.114zm-25.46-18.95c-4.11-2.936-11.317-14.252-14.092-8.38-1.655 3.523 6.992 8.434 9.714 12.65C9.13 23.702.11 18.47.162 35.606c0 8.22-.32 23.167 0 30.427.214 4.324 2.883 7.58 6.726 8.434 3.79.854 37.15.214 45.745.214 3.843 0 11.636.427 15.052-.16 9.394-1.602 7.046-14.093 7.046-23.274V36.032c0-17.562-8.167-12.278-32.934-13.078 1.601-2.402 7.793-8.007 10.248-10.516C56.05 8.434 62.561 3.683 59.625.8c-2.615-2.563-5.498 1.28-6.512 2.348-1.815 1.869-3.363 3.363-5.178 5.232-2.669 2.669-7.846 8.487-10.462 10.302z" fill="#fff"/></g><defs><clipPath id="fclip0"><path fill="#fff" d="M0 0h75v75H0z"/></clipPath></defs></svg><svg fill="none" viewBox="0 0 30 30" id="instagram" xmlns="http://www.w3.org/2000/svg"><path fill="#EB3136" d="M0 0h30v30H0z"/><g clip-path="url(#gclip0)" fill="#fff"><path d="M23.982 11.292c-.042-.956-.196-1.614-.418-2.184a4.393 4.393 0 00-1.04-1.596 4.43 4.43 0 00-1.594-1.037c-.573-.222-1.227-.377-2.183-.419-.964-.045-1.27-.056-3.714-.056-2.443 0-2.75.01-3.71.053-.956.042-1.613.197-2.183.418a4.392 4.392 0 00-1.596 1.041c-.457.45-.812.995-1.038 1.593-.221.573-.376 1.227-.418 2.184-.046.963-.056 1.269-.056 3.713s.01 2.75.052 3.71c.043.956.197 1.613.419 2.183a4.439 4.439 0 001.04 1.596c.45.458.996.813 1.594 1.038.573.221 1.227.376 2.183.418.96.043 1.266.053 3.71.053s2.75-.01 3.71-.053c.956-.042 1.614-.197 2.183-.418a4.604 4.604 0 002.634-2.634c.222-.573.376-1.227.418-2.183.043-.96.053-1.266.053-3.71s-.003-2.75-.046-3.71zm-1.62 7.35c-.04.878-.187 1.353-.31 1.67a2.986 2.986 0 01-1.709 1.708c-.316.123-.794.271-1.67.31-.95.042-1.234.052-3.636.052s-2.69-.01-3.636-.052c-.879-.039-1.354-.187-1.67-.31a2.77 2.77 0 01-1.034-.671 2.799 2.799 0 01-.672-1.034c-.123-.317-.27-.795-.309-1.67-.042-.95-.053-1.235-.053-3.636 0-2.402.01-2.69.053-3.636.039-.88.186-1.354.31-1.67.144-.39.372-.746.675-1.034a2.794 2.794 0 011.033-.672c.317-.123.795-.27 1.67-.31.95-.041 1.235-.052 3.636-.052 2.406 0 2.69.01 3.636.053.88.039 1.354.186 1.67.31.39.143.746.372 1.034.67.3.293.528.644.672 1.035.123.316.27.794.31 1.67.042.95.052 1.234.052 3.636 0 2.401-.01 2.683-.053 3.632z"/><path d="M15.033 10.378a4.625 4.625 0 000 9.248 4.625 4.625 0 000-9.248zm0 7.623a3 3 0 11.001-6 3 3 0 010 6zM20.92 10.195a1.08 1.08 0 11-2.16 0 1.08 1.08 0 012.16 0z"/></g><defs><clipPath id="gclip0"><path fill="#fff" transform="translate(6 6)" d="M0 0h18v18H0z"/></clipPath></defs></svg><svg fill="none" viewBox="0 0 30 30" id="vk" xmlns="http://www.w3.org/2000/svg"><path fill="#EB3136" d="M0 0h30v30H0z"/><g clip-path="url(#hclip0)"><path d="M21.596 15.771c-.323-.368-.231-.531 0-.86.004-.003 2.673-3.323 2.948-4.448l.002-.001c.137-.41 0-.712-.661-.712h-2.187c-.556 0-.813.259-.95.548 0 0-1.114 2.399-2.689 3.954-.508.449-.743.593-1.02.593-.137 0-.35-.144-.35-.555v-3.828c0-.492-.156-.712-.616-.712h-3.439c-.349 0-.556.23-.556.443 0 .467.787.574.869 1.886v2.848c0 .624-.126.739-.405.739-.744 0-2.548-2.408-3.617-5.165-.216-.534-.427-.75-.988-.75H5.75c-.624 0-.75.258-.75.548 0 .511.743 3.055 3.457 6.415 1.808 2.293 4.355 3.536 6.671 3.536 1.393 0 1.563-.276 1.563-.75 0-2.192-.126-2.4.572-2.4.323 0 .88.145 2.18 1.251 1.485 1.312 1.73 1.899 2.561 1.899h2.187c.623 0 .939-.276.757-.82-.416-1.146-3.226-3.502-3.352-3.659z" fill="#fff"/></g><defs><clipPath id="hclip0"><path fill="#fff" transform="translate(5 6)" d="M0 0h20v18H0z"/></clipPath></defs></svg><svg fill="none" viewBox="0 0 30 30" id="youtube" xmlns="http://www.w3.org/2000/svg"><path fill="#EB3136" d="M0 0h30v30H0z"/><path d="M23.979 10.314a2.349 2.349 0 00-1.653-1.653c-1.467-.402-7.336-.402-7.336-.402s-5.869 0-7.336.387A2.397 2.397 0 006 10.314c-.386 1.467-.386 4.51-.386 4.51s0 3.057.386 4.51a2.35 2.35 0 001.653 1.652c1.483.401 7.336.401 7.336.401s5.87 0 7.336-.386a2.35 2.35 0 001.653-1.652c.386-1.468.386-4.51.386-4.51s.016-3.058-.386-4.525zm-10.858 7.32v-5.622l4.88 2.811-4.88 2.811z" fill="#fff"/></svg></svg>