<svg width="24" height="24" viewBox="0 0 24 24" fill="none" xmlns="http://www.w3.org/2000/svg">
<g clip-path="url(#clip0)">
<path d="M23.5029 12.7791L1.21769 23.0646C0.862839 23.2257 0.439421 23.1297 0.19257 22.8246C-0.0559956 22.5194 -0.0645668 22.0857 0.171999 21.772L7.50039 12.0008L0.171999 2.22965C-0.0645668 1.91595 -0.0559956 1.48053 0.190855 1.1771C0.357137 0.969681 0.605702 0.858255 0.857696 0.858255C0.979408 0.858255 1.10112 0.883968 1.21597 0.937111L23.5011 11.2226C23.8063 11.3631 24 11.6666 24 12.0008C24 12.3351 23.8063 12.6385 23.5029 12.7791Z" fill="white"/>
</g>
<defs>
<clipPath id="clip0">
<rect width="24" height="24" fill="white" transform="matrix(1 0 0 -1 0 24)"/>
</clipPath>
</defs>
</svg>
