<svg width="70" height="75" viewBox="0 0 70 75" fill="none" xmlns="http://www.w3.org/2000/svg">
<path fill-rule="evenodd" clip-rule="evenodd" d="M24.4949 51.3077C36.3622 55.1998 30.5799 57.8254 45.7773 51.4622C41.539 43.4 44.9296 44.234 47.2304 37.7472C49.6826 30.8588 49.1074 35.554 50.6816 31.909C52.5283 27.6463 50.2275 26.2871 50.2578 24.5264C50.2578 24.4955 55.041 8.00046 44.1728 4.3246C38.2997 2.31677 42.0536 5.12773 38.7235 0.0927191C27.0379 -0.864859 16.1999 8.46381 19.0759 21.1594C19.409 22.5804 20.1355 23.9086 19.9842 24.7426C19.742 26.1018 18.864 25.8238 18.8943 28.5421C18.9851 33.2682 21.2556 32.6195 22.2547 35.554C22.7996 37.1603 22.8299 37.8089 23.5564 39.3534L25.5242 42.5659C26.1902 43.7089 26.4627 44.3884 26.1297 47.2303C25.827 49.6397 25.3729 49.5779 24.4949 51.3077Z" fill="white"/>
<path fill-rule="evenodd" clip-rule="evenodd" d="M40.2978 74.7221C44.7783 75.031 66.8478 75.2472 69.8146 74.4132C71.5705 62.3353 60.4298 58.3815 51.5899 54.7365C48.5323 53.47 47.6846 54.5511 44.5967 55.8176C42.4775 56.7134 39.2685 57.4239 38.1787 59.0919C35.6054 63.0458 39.3291 70.2122 40.2978 74.7221Z" fill="white"/>
<path fill-rule="evenodd" clip-rule="evenodd" d="M3.69699 74.8149L30.035 74.7531C31.0038 70.2123 35.121 62.0883 31.7001 58.536C30.6102 57.424 26.6141 56.0958 24.7674 55.2309C20.8319 53.4393 21.7098 53.3466 17.8953 54.9837C15.5945 55.9413 13.0515 56.9916 10.8113 58.1036C8.14722 59.4318 6.63353 60.3585 4.75657 62.2737C1.00264 66.104 -3.14484 74.8149 3.69699 74.8149Z" fill="white"/>
</svg>
