<svg width="68" height="75" viewBox="0 0 68 75" fill="none" xmlns="http://www.w3.org/2000/svg">
<g clip-path="url(#clip0)">
<path fill-rule="evenodd" clip-rule="evenodd" d="M43.7445 68.5009C43.0808 65.9825 43.2618 62.6245 43.2618 59.6864C51.1659 62.6245 50.2609 62.5646 58.2254 59.7463C58.2254 63.3441 59.1908 71.0793 53.8811 68.8007C51.4676 67.7214 51.6486 66.4622 48.8731 68.0212C46.2183 69.5203 46.4596 69.7002 43.6841 68.5009H43.7445ZM49.1748 41.5776C58.9494 39.239 61.8456 53.9899 52.4934 56.0286C42.7791 58.1273 39.2795 43.9161 49.1748 41.5776ZM23.5919 39.4789C17.5581 39.4789 17.3168 33.9023 23.0488 33.9023L33.4872 33.7824L36.866 34.3221C38.2538 37.3802 37.6504 39.4789 33.6078 39.4789H23.5315H23.5919ZM19.7906 27.7861C16.6531 20.8304 26.307 22.6893 37.6504 22.6893C49.1748 22.6893 58.5874 20.8304 55.5102 27.7861C52.0107 28.7455 23.2298 28.7455 19.7303 27.7861H19.7906ZM5.85272 13.3351C5.91306 8.23824 7.42149 5.95965 12.6105 5.95965H44.4685L46.52 6.01961C45.4943 9.31757 45.1926 9.4375 45.1926 13.395L5.85272 13.3351ZM7.66284 19.0915C8.20587 30.5444 7.72318 43.1366 7.72318 54.7094C7.72318 72.2786 6.57677 74.797 23.0488 74.797C34.6939 74.797 47.0027 75.1568 58.5874 74.797C70.8359 74.3773 67.638 59.5664 67.638 48.4733C67.638 36.6007 67.819 24.4882 67.638 12.6155C67.3966 -0.996038 56.536 0.323144 44.4685 0.323144C36.504 0.323144 15.748 -0.696224 9.35228 0.562995C-0.965377 2.54177 -0.48268 15.014 0.603389 17.3526C1.68946 19.6911 4.70632 18.7317 7.66284 19.0915Z" fill="white"/>
</g>
<defs>
<clipPath id="clip0">
<rect width="68" height="75" fill="white"/>
</clipPath>
</defs>
</svg>
