<svg width="75" height="75" viewBox="0 0 75 75" fill="none" xmlns="http://www.w3.org/2000/svg">
<g clip-path="url(#clip0)">
<path fill-rule="evenodd" clip-rule="evenodd" d="M21.7269 28.879C28.2924 28.6655 37.0997 28.4519 43.505 29.1459C51.0846 30 53.5933 32.8292 54.3406 40.4626C54.8744 45.8541 55.0345 56.3167 53.5933 61.3879C51.6717 68.0605 46.5475 68.701 39.1814 68.9146C32.4025 69.1281 23.7553 69.3416 17.1365 68.5943C9.61024 67.7936 7.04812 64.8576 6.24746 57.3309C5.66031 51.8861 5.55355 41.3167 6.94137 36.3523C8.86296 29.6263 14.2007 29.0925 21.7269 28.8256V28.879ZM63.308 49.1103C69.1262 46.8149 70.9944 55.6228 66.4573 57.3309C64.002 58.2384 61.3865 57.0107 60.6392 55.0356C60.1054 53.6477 60.1588 52.4733 60.7459 51.1922C61.4398 49.7509 62.0804 49.6441 63.308 49.1637V49.1103ZM62.9344 37.6334C68.8059 35.2313 71.2613 43.6655 66.6175 45.7473C60.7993 48.363 57.7568 39.7153 62.9344 37.6334ZM37.4733 18.6833C33.3633 15.7473 26.1573 4.43059 23.3816 10.3025C21.7269 13.8256 30.3741 18.7366 33.0964 22.9537C9.12985 23.7011 0.109043 18.4697 0.162421 35.605C0.162421 43.8256 -0.157845 58.7722 0.162421 66.032C0.375931 70.3559 3.04481 73.6121 6.88799 74.4662C10.6778 75.3203 44.0388 74.6797 52.6325 74.6797C56.4757 74.6797 64.2688 75.1067 67.685 74.5196C77.0795 72.9181 74.7308 60.427 74.7308 51.2455C74.7308 46.1744 74.7308 41.1032 74.7308 36.032C74.7308 18.4697 66.5641 23.7544 41.7969 22.9537C43.3982 20.5516 49.59 14.9466 52.0454 12.4377C56.0487 8.43415 62.5608 3.68326 59.625 0.8007C57.0095 -1.76158 54.1271 2.08184 53.1129 3.14945C51.2981 5.01778 49.7502 6.51244 47.9353 8.38077C45.2664 11.0498 40.0888 16.8683 37.4733 18.6833Z" fill="white"/>
</g>
<defs>
<clipPath id="clip0">
<rect width="75" height="75" fill="white"/>
</clipPath>
</defs>
</svg>
