<svg width="74" height="75" viewBox="0 0 74 75" fill="none" xmlns="http://www.w3.org/2000/svg">
<g clip-path="url(#clip0)">
<path fill-rule="evenodd" clip-rule="evenodd" d="M30.8624 22.4324C32.2652 21.3688 34.0188 22.0779 35.4216 19.9507C37.5259 17.469 35.4216 17.8235 39.9809 17.8235V37.3225H35.0709V24.9141H30.5117V22.0779L30.8624 22.4324ZM20.6918 39.4497H19.9904C16.1325 35.1954 12.6254 32.0046 8.4169 27.3958C-4.20869 12.8601 8.4169 6.83319 13.6776 11.442C15.7818 13.2147 16.1325 16.7599 16.4833 19.9507C17.1847 27.0412 18.5875 32.7137 20.3411 39.0951L20.6918 39.4497ZM53.6586 39.4497H52.9572C54.7107 32.7137 56.1136 27.3958 57.1657 19.9507C57.5164 16.0509 57.8671 13.2147 60.3221 11.442C63.1278 9.31488 66.6349 10.0239 68.7392 12.1511C75.7534 19.5962 58.9193 34.1318 53.6586 39.8042V39.4497ZM21.7439 45.8312C21.7439 45.8312 22.4453 45.1221 22.796 45.1221C23.4975 49.0219 25.9524 52.2126 28.0567 55.0489C29.4596 57.176 32.616 60.7213 37.1752 60.3668C44.8908 60.0122 48.7487 48.6674 51.2036 44.7676C52.2558 47.6038 53.6586 49.731 57.5164 48.6674C58.2179 45.1221 56.4643 46.8947 54.7107 44.7676C55.0615 38.0316 75.4027 28.4593 73.6491 14.9873C72.9477 8.60582 64.8814 3.99697 58.9193 8.2513C56.815 9.66941 58.2179 10.0239 54.7107 10.0239H24.9003C16.4833 10.0239 18.5875 10.733 14.7297 8.2513C8.06619 3.99697 0.701259 9.31488 -0.000162423 15.3418C-1.0523 28.4593 18.9382 38.0316 18.9382 44.7676C17.1847 46.8947 15.4311 45.1221 16.1325 48.6674C18.9382 49.731 21.0425 48.3128 21.7439 45.8312ZM26.3032 68.5209C22.0946 68.5209 19.2889 70.648 19.2889 74.9024H54.36C53.6586 67.8118 47.6965 68.5209 43.1373 68.5209V61.7849C34.0188 64.6211 38.2273 64.2666 30.161 61.7849V68.5209H26.3032ZM16.1325 0.451704C12.6254 2.22434 13.6776 6.47866 18.9382 6.47866C24.5496 6.47866 56.1136 6.83319 57.1657 6.12414C59.9714 5.06055 60.3221 0.0971767 54.36 0.0971767C48.3979 0.0971767 17.5354 -0.25735 16.1325 0.451704Z" fill="white"/>
</g>
<defs>
<clipPath id="clip0">
<rect width="74" height="75" fill="white"/>
</clipPath>
</defs>
</svg>
