<svg width="51" height="75" viewBox="0 0 51 75" fill="none" xmlns="http://www.w3.org/2000/svg">
<g clip-path="url(#clip0)">
<path fill-rule="evenodd" clip-rule="evenodd" d="M28.1344 61.8058C26.0324 61.8961 23.1776 61.8623 20.6074 61.3544C18.0373 60.8465 15.7425 59.8645 13.668 58.4763C11.5935 57.088 9.74843 55.3047 8.10535 53.1602C6.46227 51.0158 5.03031 48.5101 3.80029 45.7562C2.5611 43.0022 1.52385 40 0.90884 37.8216C0.303012 35.632 0.119427 34.2551 0.101069 32.7765C0.0827104 31.2979 0.211219 29.7178 0.56003 28.2393C0.90884 26.7607 1.47795 25.3837 2.17557 24.3115C2.88237 23.2393 3.71768 22.483 4.44284 21.9864C5.15882 21.5011 5.76465 21.2754 6.08592 21.1625C6.41637 21.0496 6.47145 21.0384 6.48981 21.0496C6.50816 21.0722 6.49899 21.1286 6.56324 21.851C6.62749 22.5733 6.756 23.9616 7.16907 26.2754C7.58213 28.5891 8.27057 31.8397 8.97737 34.5937C9.68417 37.3476 10.4185 39.6049 10.9693 40.9142C11.52 42.2235 11.8872 42.5733 12.1809 42.7426C12.4747 42.9119 12.695 42.9007 12.952 42.7539C13.209 42.6072 13.4935 42.3137 13.6955 41.9864C13.8974 41.6591 14.0076 41.2867 13.6955 40.1354C13.3834 38.9842 12.6491 37.0429 12.0524 35.2144C11.4466 33.386 10.9693 31.6478 10.4644 28.8826C9.95955 26.1174 9.42716 22.3137 9.17014 20.0564C8.91312 17.7991 8.9223 17.088 8.99573 15.9255C9.06917 14.763 9.19767 13.1377 9.54648 11.6253C9.8953 10.1128 10.4644 8.7133 11.3548 7.30246C12.2452 5.90292 13.466 4.49208 15.155 3.35213C16.844 2.21217 18.9919 1.3431 21.4152 0.812623C23.8385 0.282149 26.528 0.090275 29.4746 0.112848C32.4211 0.135422 35.6063 0.383729 38.1214 0.846483C40.6365 1.30924 42.4632 1.98644 44.0512 3.00224C45.6392 4.00675 46.9977 5.34987 48.035 6.98644C49.0814 8.63429 49.8065 10.5756 50.2655 12.3815C50.7245 14.1873 50.8989 15.8465 50.9172 19.3566C50.9356 22.8555 50.7887 28.2054 50.4124 33.0474C50.036 37.8894 49.4302 42.246 48.6683 45.8803C47.9156 49.5146 47.0161 52.4492 46.3093 54.2776C45.6025 56.1061 45.0792 56.851 44.1338 57.6298C43.1883 58.4086 41.8298 59.2438 39.9022 59.8532C37.9745 60.4627 35.4778 60.8465 33.5501 61.1512C31.6225 61.456 30.2548 61.693 28.1528 61.7833L28.1344 61.8058ZM15.3845 64.4131C15.7057 75.9142 23.3887 74.9097 32.3936 74.8307C42.1419 74.7517 46.5296 73.9503 45.9972 60.5643C43.8033 61.4672 42.4999 62.6298 39.4157 63.4311C32.0172 65.3499 23.2235 65.4853 16.1831 63.4876L14.9806 62.9345C15.0632 64.4695 14.8613 63.5891 15.3936 64.4131H15.3845Z" fill="white" stroke="white" stroke-width="0.200005"/>
</g>
<defs>
<clipPath id="clip0">
<rect width="51" height="75" fill="white"/>
</clipPath>
</defs>
</svg>
