<svg width="72" height="75" viewBox="0 0 72 75" fill="none" xmlns="http://www.w3.org/2000/svg">
<g clip-path="url(#clip0)">
<path fill-rule="evenodd" clip-rule="evenodd" d="M13.4685 55.3358C15.4379 53.982 18.2085 51.6805 20.4117 50.6652C21.0125 55.1327 21.6467 59.7018 22.281 64.2031C23.249 71.209 22.548 74.7627 27.1879 74.7965C33.4301 74.7965 42.1424 75.4396 48.0508 74.3565C49.5195 70.9382 51.1552 55.8434 51.6893 50.8344C53.0245 51.3083 57.631 54.6927 58.7993 55.6742C55.7283 61.7663 45.7475 70.4644 52.724 74.1535C57.1637 76.4888 60.1679 71.3782 61.67 69.4829C62.9051 67.926 64.0401 67.1476 65.2751 65.6584C69.2808 60.8525 74.2545 57.2988 70.8831 50.9698L60.001 40.0718C54.827 35.5704 52.4236 31.6444 47.6502 30.8322L37.4024 51.2744C39.3384 52.5944 40.8406 51.0375 40.8406 54.4897C40.8406 57.4342 41.0742 58.6187 40.4734 61.0894C36.0671 61.5971 36.0004 61.6986 31.6275 61.1909C30.8598 52.9328 30.5593 52.019 34.8321 51.7821L24.6844 30.866C22.2476 31.2722 20.7788 32.0844 19.5104 33.3705L4.08855 47.7546C-5.22463 55.4712 3.88827 62.1047 7.19295 66.2C8.42803 67.7568 9.56297 68.5352 10.798 70.0244C12.3336 71.852 15.0708 76.9626 19.6439 74.1873C23.8832 71.6151 20.8456 67.3168 19.0097 64.44C17.374 61.8678 14.6368 58.1787 13.4685 55.4373V55.3358ZM35.967 45.3854L43.3441 30.8322L28.8903 30.7983L35.9336 45.3854H35.967ZM32.462 0.710323C16.9067 5.75319 24.4173 29.2415 39.739 24.334C54.6267 19.5619 48.3846 -4.46793 32.462 0.710323Z" fill="white"/>
</g>
<defs>
<clipPath id="clip0">
<rect width="72" height="75" fill="white"/>
</clipPath>
</defs>
</svg>
