<svg width="30" height="30" viewBox="0 0 30 30" fill="none" xmlns="http://www.w3.org/2000/svg">
<rect width="30" height="30" fill="#EB3136"/>
<g clip-path="url(#clip0)">
<path d="M23.9824 11.292C23.9403 10.3356 23.7856 9.67812 23.5641 9.10836C23.3355 8.50359 22.9839 7.96213 22.5232 7.51201C22.0731 7.05489 21.528 6.69969 20.9303 6.4747C20.3572 6.25315 19.7031 6.09848 18.7467 6.05632C17.7832 6.01058 17.4773 6 15.0334 6C12.5896 6 12.2837 6.01058 11.3237 6.05274C10.3673 6.09491 9.70979 6.24971 9.14018 6.47113C8.53526 6.69969 7.99381 7.05132 7.54369 7.51201C7.08657 7.96213 6.73151 8.50716 6.50638 9.10493C6.28482 9.67812 6.13016 10.3321 6.08799 11.2885C6.04225 12.252 6.03168 12.5579 6.03168 15.0018C6.03168 17.4456 6.04225 17.7515 6.08442 18.7115C6.12659 19.6679 6.28139 20.3254 6.50295 20.8952C6.73151 21.4999 7.08657 22.0414 7.54369 22.4915C7.99381 22.9486 8.53883 23.3038 9.13661 23.5288C9.70979 23.7504 10.3637 23.905 11.3203 23.9472C12.2801 23.9895 12.5862 23.9999 15.03 23.9999C17.4738 23.9999 17.7797 23.9895 18.7397 23.9472C19.6961 23.905 20.3536 23.7504 20.9233 23.5288C22.1329 23.0611 23.0894 22.1047 23.557 20.8952C23.7785 20.322 23.9333 19.6679 23.9754 18.7115C24.0176 17.7515 24.0282 17.4456 24.0282 15.0018C24.0282 12.5579 24.0246 12.252 23.9824 11.292ZM22.3615 18.6411C22.3228 19.5202 22.1751 19.9949 22.052 20.3114C21.7496 21.0956 21.1272 21.7179 20.3431 22.0204C20.0266 22.1434 19.5485 22.2911 18.6728 22.3297C17.7234 22.372 17.4387 22.3824 15.037 22.3824C12.6353 22.3824 12.347 22.372 11.4011 22.3297C10.522 22.2911 10.0473 22.1434 9.73081 22.0204C9.34058 21.8761 8.98538 21.6476 8.69707 21.3487C8.39818 21.0568 8.16962 20.7052 8.0254 20.315C7.90233 19.9985 7.75467 19.5202 7.71607 18.6447C7.67377 17.6953 7.66333 17.4104 7.66333 15.0088C7.66333 12.6071 7.67377 12.3188 7.71607 11.373C7.75467 10.4939 7.90233 10.0192 8.0254 9.7027C8.16962 9.31234 8.39818 8.95727 8.70064 8.66883C8.99238 8.36994 9.34401 8.14138 9.73438 7.99729C10.0508 7.87422 10.5291 7.72656 11.4046 7.68783C12.354 7.64566 12.6389 7.63509 15.0404 7.63509C17.4457 7.63509 17.7304 7.64566 18.6764 7.68783C19.5555 7.72656 20.0302 7.87422 20.3466 7.99729C20.7369 8.14138 21.0921 8.36994 21.3804 8.66883C21.6793 8.96071 21.9078 9.31234 22.052 9.7027C22.1751 10.0192 22.3228 10.4973 22.3615 11.373C22.4037 12.3224 22.4142 12.6071 22.4142 15.0088C22.4142 17.4104 22.4037 17.6917 22.3615 18.6411Z" fill="white"/>
<path d="M15.0334 10.3778C12.4806 10.3778 10.4094 12.4489 10.4094 15.0018C10.4094 17.5547 12.4806 19.6257 15.0334 19.6257C17.5863 19.6257 19.6573 17.5547 19.6573 15.0018C19.6573 12.4489 17.5863 10.3778 15.0334 10.3778ZM15.0334 18.0012C13.3773 18.0012 12.0339 16.658 12.0339 15.0018C12.0339 13.3455 13.3773 12.0023 15.0334 12.0023C16.6896 12.0023 18.0328 13.3455 18.0328 15.0018C18.0328 16.658 16.6896 18.0012 15.0334 18.0012Z" fill="white"/>
<path d="M20.9198 10.195C20.9198 10.7911 20.4364 11.2744 19.8402 11.2744C19.244 11.2744 18.7607 10.7911 18.7607 10.195C18.7607 9.5987 19.244 9.11548 19.8402 9.11548C20.4364 9.11548 20.9198 9.5987 20.9198 10.195Z" fill="white"/>
</g>
<defs>
<clipPath id="clip0">
<rect width="18" height="18" fill="white" transform="translate(6 6)"/>
</clipPath>
</defs>
</svg>
