<svg width="30" height="30" viewBox="0 0 30 30" fill="none" xmlns="http://www.w3.org/2000/svg">
<rect width="30" height="30" fill="#EB3136"/>
<g clip-path="url(#clip0)">
<path d="M21.5958 15.771C21.2725 15.4035 21.365 15.24 21.5958 14.9115C21.6 14.9078 24.2692 11.5883 24.5442 10.4625L24.5458 10.4618C24.6825 10.0515 24.5458 9.75 23.885 9.75H21.6983C21.1417 9.75 20.885 10.0088 20.7475 10.2983C20.7475 10.2983 19.6342 12.6968 18.0592 14.2515C17.5508 14.7008 17.3158 14.8448 17.0383 14.8448C16.9017 14.8448 16.6892 14.7008 16.6892 14.2905V10.4618C16.6892 9.96975 16.5333 9.75 16.0725 9.75H12.6342C12.285 9.75 12.0775 9.9795 12.0775 10.1933C12.0775 10.6598 12.865 10.767 12.9467 12.0795V14.9273C12.9467 15.5513 12.8208 15.666 12.5417 15.666C11.7983 15.666 9.99417 13.2578 8.925 10.5015C8.70917 9.96675 8.49833 9.75075 7.9375 9.75075H5.75C5.12583 9.75075 5 10.0095 5 10.299C5 10.8105 5.74333 13.3538 8.45667 16.7138C10.265 19.0073 12.8117 20.25 15.1283 20.25C16.5208 20.25 16.6908 19.974 16.6908 19.4993C16.6908 17.3078 16.565 17.1008 17.2625 17.1008C17.5858 17.1008 18.1425 17.2448 19.4425 18.351C20.9283 19.6628 21.1725 20.25 22.0042 20.25H24.1908C24.8142 20.25 25.13 19.974 24.9483 19.4295C24.5325 18.2843 21.7225 15.9285 21.5958 15.771Z" fill="white"/>
</g>
<defs>
<clipPath id="clip0">
<rect width="20" height="18" fill="white" transform="translate(5 6)"/>
</clipPath>
</defs>
</svg>
