<svg width="30" height="30" viewBox="0 0 30 30" fill="none" xmlns="http://www.w3.org/2000/svg">
<rect width="30" height="30" fill="#EB3136"/>
<path d="M23.9789 10.3136C23.7628 9.51029 23.1295 8.87709 22.3264 8.6608C20.8591 8.25934 14.99 8.25934 14.99 8.25934C14.99 8.25934 9.12113 8.25934 7.65388 8.64558C6.86619 8.86164 6.21742 9.51041 6.00136 10.3136C5.61523 11.7807 5.61523 14.8233 5.61523 14.8233C5.61523 14.8233 5.61523 17.8813 6.00136 19.3331C6.21765 20.1362 6.85074 20.7694 7.654 20.9857C9.13658 21.3873 14.9902 21.3873 14.9902 21.3873C14.9902 21.3873 20.8591 21.3873 22.3264 21.0011C23.1296 20.7849 23.7628 20.1517 23.9791 19.3485C24.3651 17.8813 24.3651 14.8388 24.3651 14.8388C24.3651 14.8388 24.3806 11.7807 23.9789 10.3136ZM13.1214 17.6342V12.0124L18.0019 14.8233L13.1214 17.6342Z" fill="white"/>
</svg>
