<svg width="58" height="71" viewBox="0 0 58 71" fill="none" xmlns="http://www.w3.org/2000/svg">
<path fill-rule="evenodd" clip-rule="evenodd" d="M25.7713 61.3822C25.8542 60.8504 27.6005 59.6045 28.186 59.1498C28.5902 58.8339 28.6809 58.5898 29.2353 58.5025C29.3131 59.4607 29.3752 62.3943 29.1576 63.111C28.5824 63.3242 27.9969 62.7591 27.388 62.3712C26.8543 62.0321 26.2791 61.7392 25.7739 61.3822H25.7713ZM45.8689 41.7794L45.9621 41.7409C46.1798 41.615 46.1202 41.9438 46.1383 41.4968C45.5269 41.019 44.1045 40.7339 43.2987 40.9651C43.7702 41.335 44.4931 40.9908 45.475 41.6458C45.5346 42.2341 45.2496 42.1493 45.159 42.8146C46.2782 44.0631 46.0165 43.0433 46.7446 45.1214C46.9415 45.6814 46.7524 45.3603 47.0659 45.5941C46.9596 46.7501 48.0867 48.0525 47.2913 49.3446C46.4596 49.4011 45.4854 47.9266 45.1538 47.2741C44.4594 45.9126 45.3144 45.4528 44.6589 44.7567C44.4516 44.5358 44.2858 44.4176 44.0267 44.1813C41.1094 41.5174 41.555 43.1383 37.977 41.5276C37.5625 40.9548 37.578 41.5251 37.3889 40.7467L38.3605 40.888C38.2983 40.5386 38.218 40.6928 38.1273 40.2715C38.5211 39.9863 38.6532 39.5728 38.9719 39.1926C39.4305 38.6454 39.845 38.7584 40.0886 38.0417C39.7233 38.1702 39.459 38.3346 39.2284 38.4887C38.7206 38.8278 39.047 38.7045 38.7465 39.1823C38.4822 39.6062 37.964 40.2638 37.4329 40.3254C37.0987 40.03 36.7981 39.8374 36.495 39.5496C36.2281 39.2953 35.8965 38.892 35.6245 38.5016C35.3187 38.0623 34.4922 36.4799 34.4897 35.8454C34.5881 35.5859 34.4067 35.8531 34.7565 35.627L34.9327 35.5063C34.9068 35.4703 34.7876 35.3059 34.7591 35.2777C34.5881 35.121 34.7177 35.2289 34.4974 35.0901C33.7564 32.9837 35.2928 31.0699 35.5675 30.4123C36.0079 29.3488 35.6607 28.686 35.6426 27.6046C35.6348 27.1345 35.583 26.5308 35.7359 26.1378C35.9613 25.5572 36.0183 25.8886 35.7488 25.0563C34.5233 21.2698 36.2618 21.4625 35.8369 19.9751C35.5908 19.1094 31.7537 14.0257 33.7979 10.5809C35.5623 7.6062 40.0575 7.89134 35.1892 3.94818C33.8653 2.87441 32.8341 2.25789 31.4609 1.29715C28.9218 -0.480486 29.3908 -0.249291 27.5383 0.891271C26.204 1.7133 24.9681 2.45569 23.6364 3.2546L0.181051 17.5373L-0.00549316 53.2364L26.6963 69.8773C29.3623 71.5445 28.1264 71.6164 33.5388 68.3026C34.6244 67.6373 35.8551 66.8409 36.9018 66.2681C38.5651 65.3587 41.8478 63.2009 43.6407 62.1631L50.4314 58.1043C51.5559 57.3876 52.7192 56.6838 53.7892 56.021C54.2452 55.8977 54.2608 55.8617 54.4577 55.5124L53.7478 55.5098L53.3773 55.461C53.0664 54.7417 53.3255 53.0412 53.5612 52.3424C53.911 52.2397 55.2505 51.9982 55.38 52.5608C55.4059 52.679 55.4163 52.7894 55.437 52.869C55.5044 53.1439 55.4293 53.1336 55.7168 53.37C55.7013 53.6705 55.8231 54.3153 55.8749 54.7083C56.3775 54.6955 56.4708 54.1971 56.59 53.7938C56.7791 53.1491 56.8387 52.6841 56.2454 52.5916C55.7713 51.8415 55.5795 52.4452 54.994 51.4896C54.981 51.469 54.9603 51.4279 54.9396 51.4022C54.5484 51.6463 53.4213 51.7953 53.0638 51.4177C52.3357 50.8037 52.9135 50.9244 52.0922 50.5365L50.5532 50.051L50.1076 50.0125C49.9573 49.7171 50.0117 49.8275 50.0117 49.3883L49.2215 49.3369C48.8277 47.0892 48.2292 46.7809 48.0556 45.9024L47.9778 45.4605C48.3276 45.6866 48.4675 46.113 48.8691 46.2466C48.8717 45.9306 48.4649 45.2114 48.338 45.0598C48.0426 44.713 48.1799 44.844 47.8224 44.7824C47.527 44.7284 47.2861 44.5178 47.1254 44.4099C46.9285 43.9963 46.9415 44.1556 46.7005 43.8062C46.4544 43.4517 46.615 43.5442 46.2134 43.2077C45.4155 42.5423 45.5346 42.604 45.8689 41.7768V41.7794ZM51.0817 43.1691C51.2942 43.4106 51.1854 43.3053 51.4341 43.4029C51.473 43.4183 51.6103 43.4491 51.6491 43.462C51.688 43.4748 51.8383 43.5288 51.8745 43.5467C52.4575 44.3148 52.771 45.1369 54.2478 44.9879C55.0043 43.8345 54.9655 43.4183 55.3282 42.9534C56.0588 42.026 56.7351 42.4499 57.8725 42.5372L57.9087 34.1885C57.9139 33.6131 58.002 31.7943 57.7896 31.3499C57.0615 31.093 55.2868 31.1136 54.6054 31.4681C53.0016 32.3081 54.8437 33.4615 50.8771 37.6153C50.5532 37.7643 50.6361 37.5228 50.3356 38.1419C50.4858 38.2113 50.3537 38.2883 50.8848 38.1162L50.7993 38.5298C50.504 39.0795 50.2216 40.1764 50.5066 40.9548C50.6853 41.4429 51.1517 42.7093 51.0766 43.1666L51.0817 43.1691ZM56.989 52.3964C57.0615 52.4426 57.1289 52.6096 57.5875 52.4272C58.1264 52.2114 57.9217 52.345 57.9968 51.88C57.502 51.9674 57.1755 51.9622 56.989 52.3964ZM51.0118 50.7446C52.4368 50.7549 51.8435 50.9424 52.6207 51.8544C52.9446 52.2577 53.0171 52.178 53.0508 52.7457C53.0767 53.1773 53.0379 53.8375 52.9964 54.2742C52.8591 54.2999 51.359 54.9806 50.8408 54.0944C50.5713 53.5113 50.9056 53.018 50.9729 52.512C51.0532 51.9237 50.9263 51.3046 51.0118 50.7446ZM44.3946 21.4188C43.7443 21.5807 43.791 21.4753 43.1899 21.817C41.6509 22.6904 41.6431 23.2761 40.827 24.3781C39.4512 26.238 37.9692 25.5829 39.0315 28.2956C39.3502 29.1073 39.7906 29.5209 40.1715 30.4123C41.0576 32.4802 40.4202 34.2116 46.6202 33.8494C47.7965 33.78 50.9444 32.9811 51.6491 32.3543C53.7789 30.4534 50.2242 19.9674 44.3972 21.4188H44.3946ZM18.5479 56.7095C18.6697 56.5091 18.5272 56.6632 18.7681 56.3935C18.8692 56.2805 18.9158 56.2291 19.0842 56.1366C19.307 56.2214 20.6698 57.5366 20.7527 57.9862C20.1776 58.0607 18.7681 57.0948 18.5505 56.7095H18.5479ZM20.004 55.5124C20.2112 55.032 21.8876 53.8221 22.3539 53.4804C22.9291 53.0591 24.3282 51.7002 24.8774 51.5769L28.4192 55.2349C29.1291 56.0287 29.3105 55.7718 29.2535 56.9972L25.6029 59.9462C24.2219 61.0636 24.7505 60.5113 22.0974 57.9117L20.2346 55.9234C20.004 55.6074 20.1387 55.7436 20.004 55.5098V55.5124ZM48.0633 53.8658C47.5659 52.6661 47.5219 50.5032 47.9493 49.3061C49.4806 49.2573 49.0194 50.2309 49.6775 51.7362C50.2941 53.1491 49.535 54.1047 48.0633 53.8658ZM13.6485 50.2334C14.0035 50.4723 14.5009 51.0914 14.8559 51.4408C15.2808 51.8569 15.5269 52.2679 15.9933 52.7072C16.3456 53.0386 18.3251 55.0243 18.2603 55.3916C17.8069 56.2342 17.3017 56.1032 16.4804 55.5766L11.2338 52.2962C11.3685 51.7131 11.4955 51.8775 12.3116 51.1942C12.6847 50.8808 13.0889 50.3413 13.6485 50.236V50.2334ZM29.225 54.567C28.6757 54.4669 28.5695 54.1586 28.2145 53.7553L25.7946 51.1222C25.6495 50.7061 26.0874 50.4209 26.3879 50.182C26.9165 49.7608 28.756 48.0756 29.3105 48.1013C29.3701 49.0518 29.4374 53.9968 29.225 54.567ZM14.4698 49.64C14.6201 49.2264 15.2523 48.7769 15.6202 48.484C16.4648 47.8187 18.8692 45.7945 19.3252 45.5838C19.7682 45.9024 23.9914 50.3696 23.9603 50.7164C23.9344 50.9758 21.8539 52.5942 21.5507 52.81C21.1906 53.0643 19.5247 54.7186 19.0868 54.6313C18.9236 54.5979 14.6434 50.0022 14.4724 49.6375L14.4698 49.64ZM6.40697 47.7237C6.40956 47.2228 6.35515 46.2569 6.41992 45.8125C6.49247 45.3115 6.86296 45.1497 7.23346 44.8389C8.44859 43.819 8.38123 44.6308 9.26731 45.4862C9.63263 45.8382 9.8684 46.1182 10.1897 46.4932C10.4824 46.8349 10.7959 47.0917 11.0758 47.4C11.3944 47.7519 11.5732 47.9806 11.9463 48.3402C13.1796 49.5244 12.8738 49.4088 11.4644 50.5905C9.83213 51.9571 10.2881 51.6155 7.69205 50.0536C6.32924 49.2341 6.40438 49.6708 6.41215 47.7262L6.40697 47.7237ZM24.88 50.087C24.608 49.9483 22.9058 48.0422 22.67 47.7571L20.4159 45.4297C19.9029 44.7978 20.4185 44.6025 20.9445 44.1813L24.7479 41.1038C25.3594 40.8032 26.2921 42.1878 27.1289 43.0895C28.8467 44.9416 30.3442 45.7842 28.6886 47.0609L24.8774 50.0844L24.88 50.087ZM8.89941 43.6495C9.187 43.0073 11.682 41.3684 12.5241 40.6157C12.9775 40.2098 13.3143 39.8913 13.7729 39.6832C14.3921 40.0069 16.5892 42.6271 17.3846 43.4209C17.6204 43.6546 18.3536 44.3636 18.4702 44.731C18.465 45.0136 13.8273 48.7024 13.6537 48.7024C13.3221 48.7024 9.00045 43.8807 8.902 43.6521L8.89941 43.6495ZM6.46915 42.7504C6.91219 42.735 7.11169 43.0304 7.23864 43.4106C7.11169 43.7934 6.9951 43.9578 6.44324 43.9424L6.46915 42.7504ZM29.339 43.9115C28.6576 43.7882 28.0902 42.83 27.6523 42.3394C25.6081 40.0608 25.1935 40.7621 27.4036 38.9665C28.0642 38.4296 28.8415 37.6924 29.383 37.623L29.339 43.9141V43.9115ZM14.6227 38.9768C15.0502 38.4373 16.4907 37.397 17.1773 36.8472C19.5842 34.9232 19.1593 34.4145 21.0092 36.4696C21.3331 36.8293 24.2608 39.804 24.2012 40.1764C24.1624 40.4179 19.6024 44.022 19.3278 44.1247L15.7186 40.2792C15.3248 39.8579 14.7756 39.5651 14.6227 38.9768ZM12.9671 38.9177C11.9541 39.7706 10.9799 40.5643 10.0109 41.353C7.83973 43.1229 8.23614 43.1768 7.05728 41.8077C6.24374 40.8623 6.42251 41.281 6.43806 39.6986C6.44583 38.7251 6.19192 35.3624 6.78265 34.8024C7.15055 34.4531 7.75164 33.8648 8.33977 33.7133C8.74136 34.0549 9.13 34.4711 9.56786 35.0028C10.2674 35.848 12.7676 38.1265 12.9671 38.9203V38.9177ZM25.1236 39.4829C24.2479 39.0539 22.6234 36.7188 21.6984 35.9045C20.3771 34.7434 20.0972 34.4531 20.6647 33.9676L22.6285 32.4288C23.1597 31.9973 24.7116 30.6075 25.2428 30.4277C25.7454 30.7129 26.0796 31.147 26.4372 31.5631C26.8724 32.0692 27.0616 32.2131 27.4839 32.678C28.3751 33.6567 29.383 34.4145 29.3856 35.2648C29.3908 36.3617 29.2301 36.2256 28.5539 36.7522L25.1184 39.4829H25.1236ZM13.6511 38.0623C13.3117 37.808 13.0733 37.4175 12.7521 37.1118L9.28545 33.4718C8.87091 32.9888 9.25177 32.7988 9.64299 32.4905C10.2726 31.9921 10.9488 31.4964 11.5913 30.9492C13.7936 29.0739 13.905 28.7734 14.6641 29.7059C14.944 30.0501 15.115 30.2582 15.4595 30.5947L18.0142 33.3331C19.1308 34.376 19.0583 34.114 16.2265 36.2615C15.343 36.9294 14.3843 38.052 13.6511 38.0623ZM6.53392 32.0384C6.87592 32.0846 7.30342 32.4263 7.47442 32.7499C7.34746 33.2766 7.0521 33.4692 6.49247 33.4744L6.53133 32.0384H6.53392ZM26.0848 29.7547C26.3154 29.3719 29.1187 27.0985 29.4504 27.0625L29.383 33.2663C29.0669 33.2534 26.2377 30.2094 26.0848 29.7547ZM19.5687 33.5283C18.8925 33.1481 16.8871 30.6358 16.1202 29.9396C15.9648 29.7984 14.9854 28.7785 14.9828 28.7734C14.5735 28.1697 16.1202 27.3092 17.1203 26.4871C17.5634 26.1224 19.0998 24.7352 19.6905 24.4552C20.0169 24.617 20.7812 25.4545 20.9885 25.7088L23.3644 28.2622C23.7167 28.6064 24.3334 29.2075 24.4137 29.6314L20.8408 32.5727C20.4315 32.8964 19.9988 33.3202 19.5687 33.5257V33.5283ZM8.218 32.2542C7.74128 31.8637 7.1661 31.2189 6.81115 30.7899C6.30851 30.1811 6.50542 29.6596 6.51319 28.3187C6.53392 24.6555 6.18933 24.9407 7.52623 23.795C8.34755 23.0937 8.45118 22.9293 9.16368 23.7873L13.1614 28.0618C12.9878 28.7246 11.5965 29.6185 10.8063 30.2916C10.3477 30.6846 8.72582 32.1411 8.21282 32.2542H8.218ZM25.2428 28.8427C24.8386 28.6809 24.994 28.7323 24.6857 28.3906C24.5199 28.2082 24.4085 28.0901 24.2789 27.9591L21.8668 25.3234C21.2139 24.5965 20.232 24.0699 20.7553 23.5176C21.0792 23.1785 22.1855 22.4027 22.6441 22.0251C25.678 19.5256 25.2661 19.392 26.4786 20.8691C27.4269 22.0225 29.4711 23.6486 29.4685 24.6042C29.4659 25.6625 29.497 25.6163 28.8389 26.1301C28.199 26.6284 25.8179 28.7066 25.2453 28.8427H25.2428ZM14.0138 27.6097C13.462 27.3631 11.9593 25.4442 11.353 24.8456C8.69991 22.2203 8.68695 22.7726 11.7079 20.4016C14.1019 18.5237 13.9309 18.1281 14.7263 18.981C15.4829 19.7927 18.6256 23.0372 18.8588 23.646C18.6774 24.0031 14.4646 27.3631 14.0112 27.6097H14.0138ZM6.60128 21.4445C7.15574 21.3777 7.52623 21.9018 7.6221 22.3282C7.44851 22.6596 7.06246 23.0937 6.55206 23.0911L6.59869 21.4471L6.60128 21.4445ZM29.3493 22.4746C28.8674 22.3333 28.8545 22.1432 28.4969 21.7348C25.8361 18.701 25.6392 19.6669 27.7585 17.8764C28.2456 17.4654 28.9866 16.7667 29.4737 16.6793L29.4815 21.1285C29.4815 21.3495 29.4996 21.6449 29.4866 21.853L29.3467 22.472L29.3493 22.4746ZM19.8097 22.9319C19.3407 22.8188 17.5219 20.7124 17.0789 20.2449C14.4128 17.4371 14.3247 18.254 17.4571 15.7982C20.4807 13.4272 19.5247 13.4683 21.3253 15.3127C21.8876 15.8881 24.494 18.6342 24.6339 18.9707C24.4137 19.3894 20.0687 22.824 19.8122 22.9293L19.8097 22.9319ZM7.84491 20.7689C8.24909 20.3913 12.493 17.8636 12.8661 17.8327C12.9075 18.3825 11.2778 19.541 10.8296 19.8904C10.3425 20.268 8.86313 21.5832 8.45636 21.7168C8.08846 21.5164 7.85528 21.2955 7.84232 20.7689H7.84491ZM25.4837 18.3568C25.121 18.2258 22.5353 15.3666 22.1052 14.8966C20.5688 13.2037 19.7915 13.4452 22.9265 11.5211C26.9735 9.03704 25.4656 9.07044 28.7431 12.5024C29.0851 12.8595 29.4089 12.9853 29.5048 13.4631C29.567 13.7714 29.5151 14.7912 29.4866 15.1406C29.1239 15.5465 25.8361 18.2026 25.4837 18.3593V18.3568ZM26.9527 9.15007C27.0616 9.02677 28.8001 7.66272 29.4866 7.80914C29.6473 8.45905 29.5721 10.9585 29.5333 11.7497C28.9555 11.7908 28.5254 10.9919 28.1368 10.5886C27.6704 10.1082 27.0564 9.6998 26.9527 9.15007Z" fill="#EB3136"/>
</svg>
