<svg width="58" height="71" fill="none" xmlns="http://www.w3.org/2000/svg"><path fill-rule="evenodd" clip-rule="evenodd" d="M25.771 61.382c.083-.532 1.83-1.777 2.415-2.232.404-.316.495-.56 1.05-.648.077.959.14 3.892-.078 4.609-.576.213-1.161-.352-1.77-.74-.534-.339-1.109-.632-1.614-.989h-.003zM45.87 41.78l.093-.038c.218-.126.158.203.176-.244-.611-.478-2.033-.763-2.84-.532.472.37 1.195.026 2.177.68.06.59-.225.504-.316 1.17 1.12 1.248.858.228 1.586 2.306.197.56.007.24.32.473-.105 1.156 1.022 2.459.226 3.75-.831.057-1.806-1.417-2.137-2.07-.695-1.361.16-1.821-.495-2.517-.207-.221-.373-.34-.632-.576-2.918-2.664-2.472-1.043-6.05-2.653-.414-.573-.399-.003-.588-.781l.971.141c-.062-.35-.142-.195-.233-.616.394-.286.526-.7.845-1.08.459-.547.873-.434 1.117-1.15a3.64 3.64 0 00-.86.447c-.508.339-.182.216-.483.693-.264.424-.782 1.082-1.313 1.143-.334-.295-.635-.488-.938-.775a7.44 7.44 0 01-.87-1.048c-.306-.44-1.133-2.022-1.135-2.657.098-.26-.083.008.267-.218l.176-.12a4.047 4.047 0 00-.174-.23c-.17-.156-.041-.048-.262-.187-.74-2.106.796-4.02 1.07-4.678.44-1.063.094-1.726.076-2.807-.008-.47-.06-1.074.093-1.467.225-.58.282-.25.013-1.082-1.226-3.786.513-3.594.088-5.08-.246-.867-4.083-5.95-2.04-9.395 1.765-2.975 6.26-2.69 1.392-6.633-1.324-1.074-2.355-1.69-3.728-2.65C28.92-.48 29.39-.25 27.538.89c-1.334.822-2.57 1.565-3.902 2.364L.181 17.537l-.186 35.7 26.701 16.64c2.666 1.668 1.43 1.74 6.843-1.574 1.085-.666 2.316-1.462 3.363-2.035 1.663-.91 4.946-3.067 6.739-4.105l6.79-4.059c1.125-.716 2.288-1.42 3.358-2.083.456-.123.472-.16.669-.509l-.71-.002-.37-.049c-.312-.72-.053-2.42.183-3.119.35-.102 1.69-.344 1.819.219.026.118.036.228.057.308.067.275-.008.265.28.501-.016.3.106.945.158 1.338.502-.012.596-.51.715-.914.19-.645.249-1.11-.345-1.202-.474-.75-.665-.147-1.251-1.102-.013-.021-.034-.062-.054-.088-.392.244-1.519.393-1.876.016-.728-.614-.15-.494-.972-.882l-1.539-.485-.445-.038c-.15-.296-.096-.185-.096-.625l-.79-.051c-.394-2.248-.993-2.556-1.166-3.435l-.078-.441c.35.226.49.652.891.786.003-.316-.404-1.036-.531-1.187-.295-.347-.158-.216-.516-.278-.295-.054-.536-.264-.697-.372-.197-.414-.184-.254-.425-.604-.246-.354-.085-.262-.487-.598-.797-.666-.678-.604-.344-1.431v.002zm5.213 1.39c.212.242.103.136.352.234.039.015.176.046.215.059.039.013.19.067.225.085.584.768.897 1.59 2.374 1.44.756-1.153.718-1.569 1.08-2.034.73-.927 1.407-.503 2.544-.416l.037-8.349c.005-.575.093-2.394-.12-2.838-.727-.257-2.502-.236-3.184.118-1.603.84.239 1.994-3.728 6.147-.324.15-.24-.092-.541.527.15.07.018.146.549-.026l-.086.414c-.295.55-.577 1.646-.292 2.425.178.488.645 1.754.57 2.212l.005.002zm5.907 9.227c.073.047.14.214.599.031.538-.216.334-.082.409-.547-.495.087-.822.082-1.008.516zm-5.977-1.651c1.425.01.831.197 1.609 1.11.324.403.396.323.43.89.026.432-.013 1.093-.055 1.53-.137.025-1.637.706-2.155-.18-.27-.584.065-1.077.132-1.583.08-.588-.047-1.207.039-1.767zM44.396 21.42c-.65.162-.604.056-1.205.398-1.54.873-1.547 1.46-2.363 2.561-1.376 1.86-2.858 1.205-1.795 3.918.318.811.759 1.225 1.14 2.116.886 2.068.248 3.8 6.448 3.437 1.177-.069 4.324-.868 5.03-1.495 2.129-1.9-1.426-12.387-7.253-10.935h-.002zM18.549 56.71c.122-.2-.02-.046.22-.316a.954.954 0 01.316-.256c.223.084 1.586 1.4 1.669 1.85-.575.074-1.985-.892-2.203-1.278h-.002zm1.456-1.197c.207-.48 1.884-1.69 2.35-2.032.575-.42 1.974-1.78 2.523-1.903l3.542 3.658c.71.794.892.537.834 1.762l-3.65 2.95c-1.381 1.117-.853.564-3.506-2.035l-1.862-1.989c-.231-.316-.096-.18-.231-.413v.002zm28.06-1.646c-.498-1.2-.542-3.363-.115-4.56 1.532-.049 1.07.925 1.729 2.43.616 1.413-.143 2.369-1.615 2.13zm-34.416-3.633c.356.24.853.858 1.208 1.208.425.416.67.827 1.137 1.266.353.332 2.332 2.317 2.267 2.685-.453.842-.958.711-1.78.185l-5.246-3.28c.134-.584.261-.42 1.078-1.103.373-.313.777-.853 1.337-.958v-.003zm15.577 4.334c-.55-.1-.655-.408-1.01-.812l-2.42-2.633c-.146-.416.292-.701.593-.94.528-.421 2.368-2.106 2.922-2.08.06.95.127 5.895-.085 6.465zM14.47 49.64c.15-.414.782-.863 1.15-1.156.845-.665 3.25-2.69 3.705-2.9.443.318 4.666 4.786 4.635 5.132-.026.26-2.106 1.878-2.41 2.094-.36.254-2.025 1.909-2.463 1.821-.163-.033-4.444-4.629-4.615-4.993l-.002.002zm-8.063-1.916c.003-.501-.052-1.467.013-1.911.072-.502.443-.663.813-.974 1.216-1.02 1.148-.208 2.034.647.366.352.601.632.923 1.007.292.342.606.599.886.907.318.352.497.58.87.94 1.234 1.184.928 1.069-.482 2.25-1.632 1.367-1.176 1.025-3.772-.536-1.363-.82-1.288-.383-1.28-2.328l-.005-.002zm18.473 2.363c-.272-.139-1.974-2.045-2.21-2.33l-2.254-2.327c-.513-.632.003-.828.529-1.249l3.803-3.077c.611-.3 1.544 1.084 2.38 1.986 1.719 1.852 3.216 2.694 1.56 3.97l-3.81 3.024.002.003zM8.9 43.649c.287-.642 2.782-2.28 3.624-3.033.454-.406.79-.725 1.249-.933.62.324 2.816 2.944 3.612 3.738.235.234.969.943 1.085 1.31-.005.283-4.643 3.971-4.816 3.971-.332 0-4.654-4.821-4.752-5.05l-.003-.002zm-2.43-.899c.442-.015.642.28.769.66-.127.383-.244.548-.796.532l.026-1.192zm22.869 1.161c-.681-.123-1.249-1.081-1.687-1.572-2.044-2.278-2.459-1.577-.248-3.372.66-.537 1.438-1.275 1.979-1.344l-.044 6.291v-.003zm-14.716-4.934c.427-.54 1.868-1.58 2.554-2.13 2.407-1.924 1.982-2.433 3.832-.377.324.36 3.252 3.334 3.192 3.706-.039.242-4.599 3.846-4.873 3.949l-3.61-3.846c-.393-.421-.942-.714-1.095-1.302zm-1.656-.06a226.604 226.604 0 01-2.956 2.436c-2.171 1.77-1.775 1.824-2.954.455-.813-.946-.634-.527-.619-2.11.008-.973-.246-4.336.345-4.896.368-.349.969-.937 1.557-1.089.401.342.79.758 1.228 1.29.7.845 3.2 3.123 3.4 3.917v-.002zm12.157.566c-.876-.43-2.5-2.764-3.426-3.578-1.32-1.162-1.6-1.452-1.033-1.937l1.963-1.54c.532-.43 2.084-1.82 2.615-2 .502.285.837.719 1.194 1.135.435.506.625.65 1.047 1.115.891.979 1.899 1.736 1.902 2.587.005 1.097-.156.96-.832 1.487l-3.436 2.73h.006zm-11.473-1.42c-.34-.255-.578-.646-.899-.951l-3.467-3.64c-.414-.483-.033-.673.358-.982.63-.498 1.306-.994 1.948-1.54 2.203-1.876 2.314-2.177 3.073-1.244.28.344.451.552.796.889l2.554 2.738c1.117 1.043 1.044.781-1.787 2.928-.884.668-1.843 1.791-2.576 1.801zm-7.117-6.025c.342.047.77.388.94.712-.127.527-.422.72-.982.724l.04-1.436h.002zm19.55-2.283c.231-.383 3.035-2.656 3.366-2.692l-.067 6.203c-.316-.013-3.145-3.057-3.298-3.511zm-6.515 3.773c-.677-.38-2.682-2.892-3.449-3.588a61.052 61.052 0 01-1.137-1.167c-.41-.603 1.137-1.464 2.137-2.286.443-.365 1.98-1.752 2.57-2.032.327.162 1.091 1 1.298 1.254l2.376 2.553c.353.344.97.945 1.05 1.37l-3.573 2.94c-.41.324-.842.748-1.272.954v.002zM8.218 32.254c-.477-.39-1.052-1.035-1.407-1.464-.502-.609-.306-1.13-.298-2.471.02-3.663-.324-3.378 1.013-4.524.822-.701.925-.866 1.638-.008l3.997 4.275c-.173.663-1.564 1.556-2.355 2.23-.458.393-2.08 1.85-2.593 1.962h.005zm17.025-3.411c-.404-.162-.249-.11-.557-.452a13.31 13.31 0 00-.407-.432l-2.412-2.636c-.653-.727-1.635-1.253-1.112-1.805.324-.34 1.43-1.115 1.89-1.493 3.033-2.5 2.621-2.633 3.834-1.156.948 1.154 2.992 2.78 2.99 3.735-.003 1.059.028 1.012-.63 1.526-.64.498-3.021 2.577-3.594 2.713h-.002zm-11.23-1.233c-.551-.247-2.054-2.166-2.66-2.764-2.653-2.626-2.666-2.073.355-4.444 2.394-1.878 2.223-2.274 3.018-1.421.757.812 3.9 4.056 4.133 4.665-.182.357-4.394 3.717-4.848 3.964h.003zm-7.412-6.165c.555-.067.925.457 1.021.883-.173.332-.56.766-1.07.763l.047-1.644.002-.002zm22.748 1.03c-.482-.142-.494-.332-.852-.74-2.66-3.034-2.858-2.068-.738-3.859.487-.41 1.228-1.11 1.715-1.197l.008 4.45c0 .22.018.516.005.724l-.14.619.002.003zm-9.54.457c-.468-.113-2.287-2.22-2.73-2.687-2.666-2.808-2.754-1.991.378-4.447 3.024-2.37 2.068-2.33 3.868-.485.563.575 3.169 3.321 3.309 3.658-.22.418-4.565 3.853-4.822 3.958l-.002.003zM7.846 20.769c.404-.378 4.648-2.905 5.021-2.936.042.55-1.588 1.708-2.036 2.057-.488.378-1.967 1.693-2.374 1.827-.368-.2-.6-.421-.614-.948h.003zm17.639-2.412c-.363-.131-2.949-2.99-3.379-3.46-1.536-1.693-2.314-1.452.822-3.376 4.047-2.484 2.539-2.45 5.816.981.342.357.666.483.762.961.062.308.01 1.328-.018 1.678-.363.405-3.65 3.062-4.003 3.218v-.002zm1.469-9.207c.109-.123 1.847-1.487 2.534-1.34.16.649.085 3.149.046 3.94-.578.04-1.008-.758-1.396-1.161-.467-.48-1.08-.89-1.184-1.439z" fill="#EB3136"/></svg>